<svg width="40" height="40" viewBox="0 0 40 40" xmlns="http://www.w3.org/2000/svg">
    <g fill="none" fill-rule="evenodd">
        <circle fill="#000" cx="20" cy="20" r="20"/>
        <path d="M20 11a1.02 1.02 0 0 1 .484.125.878.878 0 0 1 .111.071c.04.03.077.061.112.097l-.09-.08.008.007.082.073 6 6a1 1 0 0 1-1.414 1.414L21 14.414V28a1 1 0 0 1-.883.993L20 29a1 1 0 0 1-1-1V14.414l-4.293 4.293a1 1 0 0 1-1.32.083l-.094-.083a1 1 0 0 1 0-1.414l6-6 .082-.073A1.003 1.003 0 0 1 20 11l-.09.004.072-.004z" fill="#DDD" fill-rule="nonzero"/>
    </g>
</svg>
