<svg width="92" height="20" viewBox="0 0 92 20" xmlns="http://www.w3.org/2000/svg">
    <g fill="#000" fill-rule="nonzero">
        <path d="M31.125 13.307h-4.283l-1.027 3.009H24l4.057-11.132h1.884l4.057 11.132h-1.845l-1.028-3.009zm-3.84-1.388h3.396l-1.675-4.883h-.046l-1.674 4.883zM42.775 12.259c0 2.521-1.363 4.142-3.418 4.142a2.781 2.781 0 0 1-2.578-1.42h-.038V19H35.06V8.2h1.627v1.35h.031a2.91 2.91 0 0 1 2.609-1.434c2.08 0 3.45 1.627 3.45 4.143zm-1.729 0c0-1.644-.856-2.724-2.164-2.724-1.285 0-2.15 1.103-2.15 2.724 0 1.634.865 2.73 2.15 2.73 1.308 0 2.164-1.072 2.164-2.73zM51.808 12.259c0 2.521-1.363 4.142-3.419 4.142a2.781 2.781 0 0 1-2.577-1.42h-.038V19H44.09V8.2h1.628v1.35h.03a2.91 2.91 0 0 1 2.61-1.434c2.079 0 3.449 1.627 3.449 4.143zm-1.73 0c0-1.644-.855-2.724-2.163-2.724-1.285 0-2.15 1.103-2.15 2.724 0 1.634.865 2.73 2.15 2.73 1.308 0 2.164-1.072 2.164-2.73zM57.799 13.214c.125 1.103 1.206 1.828 2.686 1.828 1.417 0 2.438-.725 2.438-1.72 0-.864-.615-1.38-2.072-1.735l-1.456-.347c-2.064-.494-3.021-1.45-3.021-3 0-1.92 1.69-3.24 4.088-3.24 2.375 0 4.002 1.32 4.057 3.24h-1.698c-.1-1.112-1.027-1.783-2.383-1.783-1.354 0-2.28.68-2.28 1.667 0 .786.59 1.25 2.04 1.604l1.237.3c2.305.54 3.263 1.458 3.263 3.087 0 2.082-1.674 3.386-4.337 3.386-2.492 0-4.174-1.273-4.282-3.287h1.72zM68.328 6.28V8.2h1.557v1.32h-1.557v4.474c0 .694.311 1.018.997 1.018.184-.003.369-.016.552-.038v1.31c-.308.058-.62.083-.934.078-1.66 0-2.305-.617-2.305-2.191V9.52h-1.191V8.2h1.19V6.28h1.691zM70.807 12.259c0-2.554 1.517-4.159 3.885-4.159 2.375 0 3.886 1.605 3.886 4.159 0 2.56-1.503 4.157-3.886 4.157s-3.885-1.597-3.885-4.157zm6.057 0c0-1.752-.81-2.785-2.172-2.785-1.363 0-2.172 1.04-2.172 2.785 0 1.758.81 2.783 2.172 2.783 1.363 0 2.172-1.025 2.172-2.783zM79.965 8.2h1.604v1.381h.039a1.95 1.95 0 0 1 1.97-1.465c.194-.002.387.02.577.062v1.558a2.375 2.375 0 0 0-.756-.1 1.701 1.701 0 0 0-1.31.533 1.667 1.667 0 0 0-.442 1.333v4.814h-1.682V8.2zM91.907 13.932a3.284 3.284 0 0 1-3.528 2.484c-2.382 0-3.862-1.581-3.862-4.12 0-2.545 1.487-4.196 3.793-4.196 2.265 0 3.69 1.543 3.69 4.004v.57h-5.785v.1a2.1 2.1 0 0 0 .578 1.643c.422.44 1.014.679 1.625.656a1.855 1.855 0 0 0 1.893-1.14h1.596zm-5.685-2.422h4.097a1.942 1.942 0 0 0-.55-1.464 1.98 1.98 0 0 0-1.46-.596 2.085 2.085 0 0 0-1.476.6 2.046 2.046 0 0 0-.61 1.46z"/>
        <g>
            <path d="m11.62 5 .267.016a4.569 4.569 0 0 1 3.605 1.959 4.497 4.497 0 0 0-2.128 3.77A4.342 4.342 0 0 0 16 14.737a9.973 9.973 0 0 1-1.371 2.807c-.808 1.215-1.655 2.402-3 2.423-1.305.03-1.744-.772-3.242-.772-1.512 0-1.98.75-3.233.803-1.28.047-2.258-1.297-3.095-2.5C.386 15.042-.917 10.575.829 7.535A4.797 4.797 0 0 1 4.87 5.06c1.281-.027 2.471.87 3.259.87.773 0 2.243-1.073 3.76-.913zm.367-5a4.31 4.31 0 0 1-1.019 3.128A3.777 3.777 0 0 1 8.01 4.5a4.104 4.104 0 0 1 1.046-3.013A4.563 4.563 0 0 1 11.987 0z"/>
        </g>
    </g>
</svg>
