<svg width="15" height="16" viewBox="0 0 15 16" xmlns="http://www.w3.org/2000/svg">
    <path d="M14.25 10.75a.75.75 0 0 1 .75.75v2.25A2.25 2.25 0 0 1 12.75 16H2.25A2.25 2.25 0 0 1 0 13.75V11.5a.75.75 0 1 1 1.5 0v2.25c0 .414.336.75.75.75h10.5a.75.75 0 0 0 .75-.75V11.5a.75.75 0 0 1 .75-.75zM7.5 0a.75.75 0 0 1 .75.75v8.689l1.72-1.72a.75.75 0 0 1 .976-.072l.084.073a.75.75 0 0 1 0 1.06l-3 3a.754.754 0 0 1-.53.22l.073-.004A.754.754 0 0 1 7.53 12L7.5 12a.763.763 0 0 1-.42-.129.748.748 0 0 1-.11-.09l.078.068a.754.754 0 0 1-.078-.069l-3-3a.75.75 0 0 1 1.06-1.06l1.72 1.719V.75a.75.75 0 0 1 .648-.743z" fill="#FFF" fill-rule="nonzero"/>
</svg>
