<svg width="40" height="40" viewBox="0 0 40 40" xmlns="http://www.w3.org/2000/svg">
    <g fill="none" fill-rule="evenodd">
        <path d="M0 20C0 8.954 8.954 0 20 0s20 8.954 20 20-8.954 20-20 20S0 31.046 0 20z" fill="#000"/>
        <path d="M25.818 16.188c2.961 0 5.182 1.93 5.182 6.074V30h-4.501v-7.22c0-1.813-.651-3.05-2.28-3.05-1.244 0-1.985.834-2.31 1.64-.12.288-.149.69-.149 1.094V30H17.26v-.258c.005-.8.016-3.353.022-6.014l.001-.667.002-.996.001-.974V19.86l-.001-.574a105.2 105.2 0 0 0-.025-2.78h4.501v1.911c.598-.919 1.668-2.229 4.058-2.229zm-11.05.317V30h-4.502V16.505h4.501zM12.545 10c1.54 0 2.489 1.008 2.518 2.33 0 1.297-.978 2.333-2.547 2.333h-.029c-1.511 0-2.488-1.036-2.488-2.332C10 11.008 11.007 10 12.546 10z" fill="#FFF"/>
    </g>
</svg>
