<svg width="139" height="16" viewBox="0 0 139 16" xmlns="http://www.w3.org/2000/svg">
    <g fill="#000" fill-rule="evenodd">
        <path d="M136.171 12.468h-47.96l.63-.624h47.33zM33.531 9.81c-.278.659-.97.99-1.682.99-1.252 0-1.963-.817-2.017-2.05h6.171v1.06h-2.472zm-1.787-4.552c.989 0 1.703.833 1.754 1.842h-3.666c.176-1.095.87-1.842 1.912-1.842zm-8.821 5.28c-1.338 0-1.79-1.026-1.79-2.607 0-1.857 1.007-2.413 1.806-2.413 1.304 0 1.754 1.266 1.754 2.413 0 1.235-.45 2.608-1.77 2.608zm18.69-7.192c-1.268 0-2.274.608-2.708 1.756h-.037V3.52h-2.865v2.433c-.678-1.618-2.11-2.69-4.26-2.69-1.963 0-3.676 1.08-4.439 2.755-.535-1.577-1.715-2.756-3.688-2.756-1.042 0-1.91.45-2.482 1.3h-.036V3.52H16.323l-1.702 5.87h-.035l-1.702-5.87h-2.17V.132h-3.23V4.65H3.23V.132H0v12.405h3.23V7.428h4.254v5.109h3.23V6.093l1.372 3.699c.174.485.746 1.875.746 2.363 0 .625-.503 1.009-1.18 1.009h-.938v2.395h1.302c1.995 0 3.057-.244 3.768-2.224l2.5-6.89v9.114h2.954v-3.997h.034c.607.82 1.459 1.233 2.57 1.233 1.803 0 2.954-1.108 3.477-2.581.741 1.655 2.372 2.58 4.494 2.58 1.742 0 3.421-.674 4.19-2.203v1.946h2.953V8.074c0-1.131.763-2.14 2.224-2.14.399 0 .745.071 1.128.174V3.417a3.26 3.26 0 0 0-.696-.071zM43.435 12.554h.668V0h-.668zM49.493 12.182c2.268 0 3.482-1.984 3.482-4.148 0-2.161-1.214-4.149-3.482-4.149-2.268 0-3.48 1.988-3.48 4.15 0 2.163 1.212 4.147 3.48 4.147m0-8.878c2.655 0 4.15 2.163 4.15 4.73 0 2.567-1.495 4.731-4.15 4.731-2.654 0-4.146-2.164-4.146-4.73 0-2.568 1.492-4.731 4.146-4.731M61.808 12.554h-.67v-1.935h-.035c-.455 1.357-1.827 2.146-3.235 2.146-3.18 0-3.214-2.55-3.214-3.657v-5.59h.667v5.71c0 .934.107 2.953 2.566 2.953 2.02 0 3.252-1.562 3.252-3.778V3.518h.669v9.036zM63.231 3.518h.668v1.934h.035c.458-1.357 1.83-2.148 3.235-2.148 3.182 0 3.216 2.551 3.216 3.66v5.59h-.668V6.84c0-.933-.103-2.956-2.565-2.956-2.022 0-3.253 1.567-3.253 3.781v4.888h-.668V3.518zM72.08 7.751c0 2.132 1.108 3.888 3.233 3.888 2.198 0 3.287-1.845 3.287-3.888 0-2.018-1.07-3.866-3.287-3.866-2.18 0-3.233 1.95-3.233 3.866zm7.205-4.233v8.564c0 .698 0 4.04-3.9 3.915-1.936 0-3.43-.717-3.534-2.812h.668c.141 1.602 1.405 2.234 2.882 2.234 3.165 0 3.217-2.583 3.217-3.18v-2.077h-.035c-.633 1.338-1.741 2.055-3.27 2.055-2.653 0-3.903-1.95-3.903-4.466 0-2.387 1.354-4.447 3.903-4.447 1.407 0 2.777.741 3.27 2.092h.035V3.518h.667zM87.595 7.543c-.035-1.9-1.229-3.658-3.303-3.658-2.005 0-3.18 1.865-3.322 3.658h6.625zm-6.625.579c-.035 2.128 1.09 4.06 3.322 4.06 1.705 0 2.918-1.017 3.236-2.688h.667c-.352 2.11-1.758 3.271-3.903 3.271-2.636 0-4.026-2.076-3.99-4.57-.036-2.478 1.264-4.891 3.99-4.891 2.83 0 4.096 2.233 3.972 4.818H80.97zM137.647 12.654h1.02V11.07h-1.02z"/>
    </g>
</svg>
