<svg width="375" height="36" viewBox="0 0 375 36" xmlns="http://www.w3.org/2000/svg">
    <g fill="none" fill-rule="evenodd">
        <path fill="#FFF" d="M369.396 28.052H261.052l1.422-1.402h106.922zM138.164 22.072c-.626 1.483-2.182 2.228-3.782 2.228-2.812 0-4.41-1.838-4.532-4.613h13.87v2.385h-5.556zm-4.017-10.241c2.222 0 3.827 1.873 3.943 4.143h-8.24c.396-2.463 1.957-4.143 4.297-4.143zm-19.824 11.881c-3.008 0-4.022-2.31-4.022-5.867 0-4.18 2.262-5.429 4.059-5.429 2.93 0 3.941 2.848 3.941 5.429 0 2.78-1.011 5.867-3.978 5.867zm42.002-16.184c-2.848 0-5.109 1.367-6.084 3.95h-.084V7.92h-6.437v5.474c-1.524-3.64-4.744-6.054-9.573-6.054-4.414 0-8.264 2.43-9.978 6.2-1.202-3.548-3.855-6.2-8.289-6.2-2.34 0-4.291 1.012-5.579 2.924h-.08V7.92H99.49l-3.826 13.21h-.079L91.762 7.92h-4.877V.298h-7.26V10.46h-9.56V.298h-7.26v27.91h7.26V16.714h9.56v11.494h7.26V13.71l3.082 8.322c.39 1.091 1.677 4.22 1.677 5.317 0 1.407-1.13 2.27-2.652 2.27h-2.107v5.388h2.924c4.485 0 6.873-.547 8.47-5.003l5.62-15.503v20.506h6.637v-8.992h.075c1.366 1.844 3.28 2.774 5.776 2.774 4.053 0 6.64-2.493 7.814-5.808 1.668 3.725 5.333 5.808 10.102 5.808 3.915 0 7.688-1.52 9.417-4.96v4.379h6.635V18.166c0-2.545 1.714-4.813 4.999-4.813.896 0 1.674.158 2.535.39V7.688a7.319 7.319 0 0 0-1.564-.16zM160.422 28.246h1.502V0h-1.502zM174.036 27.409c5.098 0 7.826-4.464 7.826-9.331 0-4.864-2.728-9.336-7.826-9.336-5.096 0-7.822 4.472-7.822 9.336 0 4.867 2.726 9.33 7.822 9.33m0-19.974c5.967 0 9.328 4.867 9.328 10.644 0 5.773-3.361 10.643-9.328 10.643-5.965 0-9.316-4.87-9.316-10.643 0-5.777 3.35-10.644 9.316-10.644M201.713 28.246h-1.503v-4.353h-.08c-1.025 3.052-4.108 4.828-7.27 4.828-7.148 0-7.225-5.736-7.225-8.229V7.915h1.5v12.85c0 2.098.24 6.643 5.767 6.643 4.54 0 7.308-3.515 7.308-8.5V7.914h1.503v20.331zM204.912 7.915h1.502v4.351h.078c1.03-3.051 4.112-4.832 7.27-4.832 7.152 0 7.228 5.74 7.228 8.235v12.577h-1.502V15.392c0-2.098-.232-6.65-5.765-6.65-4.544 0-7.31 3.524-7.31 8.506v10.998h-1.501V7.916zM224.8 17.44c0 4.798 2.488 8.748 7.264 8.748 4.94 0 7.387-4.152 7.387-8.747 0-4.541-2.406-8.7-7.387-8.7-4.9 0-7.264 4.39-7.264 8.7zm16.19-9.525v19.269c0 1.572 0 9.091-8.764 8.808-4.351 0-7.707-1.612-7.942-6.326h1.503c.316 3.606 3.156 5.027 6.475 5.027 7.113 0 7.23-5.812 7.23-7.156v-4.673h-.078c-1.423 3.01-3.914 4.625-7.35 4.625-5.961 0-8.771-4.389-8.771-10.048 0-5.373 3.044-10.007 8.771-10.007 3.163 0 6.242 1.667 7.35 4.707h.079V7.915h1.498zM259.669 16.971c-.08-4.274-2.763-8.23-7.424-8.23-4.506 0-7.149 4.197-7.468 8.23h14.892zm-14.892 1.303c-.076 4.788 2.45 9.135 7.468 9.135 3.83 0 6.557-2.289 7.271-6.047h1.5c-.79 4.747-3.952 7.36-8.77 7.36-5.925 0-9.05-4.672-8.967-10.284-.082-5.575 2.839-11.004 8.966-11.004 6.362 0 9.206 5.025 8.926 10.84h-16.394zM372.708 28.471H375V24.91h-2.292z"/>
        <path fill="#3E0000" d="M0 28.244h5.991V6.24H0z"/>
        <path fill="#EE3224" d="M49.803 28.244h5.991V.306h-5.991z"/>
        <path fill="#D62C20" d="M41.502 28.244h5.992V1.45h-5.992z"/>
        <path fill="#C3281C" d="M33.201 28.244h5.993V4.322H33.2z"/>
        <path fill="#9C1C0F" d="M24.902 28.244h5.991V8.204h-5.991z"/>
        <path fill="#7A0C00" d="M16.6 28.244h5.993V14.848h-5.992z"/>
        <path fill="#680100" d="M8.301 28.244h5.992V9.982H8.3z"/>
    </g>
</svg>
