<svg width="208" height="24" viewBox="0 0 208 24" xmlns="http://www.w3.org/2000/svg">
    <g fill="#FFF" fill-rule="evenodd">
        <path d="M204.257 18.701h-71.94l.944-.935h70.996zM50.297 14.715c-.418.988-1.457 1.485-2.524 1.485-1.877 0-2.944-1.226-3.025-3.075h9.257v1.59h-3.708zm-2.681-6.828c1.483 0 2.554 1.25 2.631 2.763h-5.499c.264-1.643 1.306-2.763 2.868-2.763zm-13.232 7.921c-2.007 0-2.684-1.54-2.684-3.911 0-2.786 1.51-3.62 2.71-3.62 1.955 0 2.63 1.899 2.63 3.62 0 1.853-.675 3.911-2.656 3.911zm28.034-10.79c-1.9 0-3.41.912-4.06 2.635h-.056V5.28h-4.297v3.65c-1.017-2.427-3.166-4.037-6.39-4.037-2.945 0-5.515 1.62-6.659 4.134-.802-2.365-2.573-4.134-5.532-4.134-1.563 0-2.864.675-3.724 1.95h-.053V5.28H24.485l-2.554 8.806h-.053L19.327 5.28H16.07V.199h-4.845v6.775h-6.38V.199H0v18.606h4.846v-7.663h6.38v7.663h4.845V9.14l2.057 5.548c.261.727 1.12 2.813 1.12 3.545 0 .938-.755 1.513-1.77 1.513H16.07v3.592h1.952c2.994 0 4.587-.365 5.653-3.335l3.75-10.336v13.67h4.43v-5.994h.051c.912 1.23 2.19 1.85 3.855 1.85 2.705 0 4.432-1.662 5.216-3.872 1.112 2.483 3.56 3.871 6.742 3.871 2.613 0 5.131-1.012 6.285-3.305v2.918h4.429v-6.694c0-1.697 1.144-3.209 3.336-3.209.598 0 1.117.105 1.692.26V5.125a4.89 4.89 0 0 0-1.044-.106zM65.152 18.83h1.003V0h-1.003zM74.239 18.272c3.402 0 5.223-2.976 5.223-6.22 0-3.243-1.82-6.224-5.223-6.224-3.401 0-5.22 2.981-5.22 6.224 0 3.244 1.819 6.22 5.22 6.22m0-13.316c3.982 0 6.226 3.245 6.226 7.096 0 3.849-2.244 7.096-6.226 7.096-3.981 0-6.218-3.247-6.218-7.096 0-3.851 2.237-7.096 6.218-7.096M92.712 18.83h-1.004V15.93h-.053c-.684 2.034-2.742 3.218-4.853 3.218-4.77 0-4.821-3.824-4.821-5.486V5.277h1.001v8.566c0 1.4.16 4.43 3.85 4.43 3.03 0 4.876-2.344 4.876-5.668V5.277h1.004V18.83zM94.847 5.277h1.002v2.9h.053c.687-2.034 2.744-3.22 4.852-3.22 4.773 0 4.824 3.826 4.824 5.49v8.384h-1.003v-8.57c0-1.398-.155-4.433-3.847-4.433-3.033 0-4.879 2.35-4.879 5.67v7.333h-1.002V5.277zM108.12 11.627c0 3.198 1.662 5.832 4.85 5.832 3.297 0 4.93-2.769 4.93-5.832 0-3.027-1.606-5.8-4.93-5.8-3.271 0-4.85 2.927-4.85 5.8zm10.807-6.35v12.845c0 1.048 0 6.061-5.85 5.873-2.904 0-5.144-1.075-5.3-4.217h1.002c.211 2.403 2.107 3.35 4.322 3.35 4.747 0 4.826-3.874 4.826-4.77v-3.116h-.052c-.95 2.008-2.613 3.084-4.906 3.084-3.979 0-5.854-2.926-5.854-6.699 0-3.582 2.031-6.67 5.854-6.67 2.11 0 4.166 1.11 4.906 3.137h.052V5.277h1zM131.393 11.314c-.052-2.85-1.844-5.487-4.954-5.487-3.008 0-4.772 2.798-4.985 5.487h9.94zm-9.939.869c-.05 3.192 1.635 6.09 4.985 6.09 2.556 0 4.376-1.526 4.852-4.032h1.001c-.527 3.165-2.637 4.907-5.853 4.907-3.955 0-6.04-3.115-5.985-6.856-.055-3.717 1.895-7.336 5.985-7.336 4.245 0 6.144 3.35 5.957 7.227h-10.942zM206.47 18.98H208v-2.373h-1.53z"/>
    </g>
</svg>
